<svg aria-hidden="true" style="position: absolute; width: 0; height: 0; overflow: hidden;" version="1.1" xmlns="http://www.w3.org/2000/svg" xmlns:xlink="http://www.w3.org/1999/xlink">
<defs>
<symbol id="icon-logo" viewBox="0 0 59 24">
<path d="M0 15.529v-15.529h18.198c2.474 0 4.884 0.788 6.88 2.251 1.193 0.874 2.146 2.036 2.77 3.377l2.105 4.526c0.813-1.985 1.832-3.88 3.041-5.652l0.104-0.153c0.347-0.509 0.744-0.982 1.185-1.413l0.897-0.876c0.584-0.571 1.278-1.019 2.039-1.316l0.078-0.030c1.206-0.471 2.49-0.713 3.785-0.713h18.212v15.529h-59.294z"></path>
<path d="M0 18.353h59.294v5.647h-59.294v-5.647z"></path>
</symbol>
<symbol id="icon-pie-chart" viewBox="0 0 24 24">
<path stroke-linejoin="round" stroke-linecap="round" stroke-miterlimit="4" stroke-width="2.4" d="M17.2 14c0.277 0 0.416 0 0.528 0.062 0.093 0.051 0.179 0.146 0.22 0.243 0.050 0.118 0.037 0.243 0.012 0.494-0.13 1.3-0.578 2.553-1.308 3.646-0.879 1.316-2.128 2.341-3.59 2.946s-3.070 0.764-4.622 0.455-2.977-1.071-4.096-2.189c-1.119-1.119-1.881-2.544-2.189-4.096s-0.15-3.16 0.455-4.622c0.606-1.462 1.631-2.711 2.946-3.59 1.093-0.73 2.346-1.178 3.646-1.308 0.251-0.025 0.376-0.038 0.494 0.012 0.097 0.041 0.192 0.127 0.243 0.22 0.062 0.112 0.062 0.251 0.062 0.528v6.4c0 0.28 0 0.42 0.054 0.527 0.048 0.094 0.124 0.171 0.219 0.219 0.107 0.054 0.247 0.054 0.527 0.054h6.4z"></path>
<path stroke-linejoin="round" stroke-linecap="round" stroke-miterlimit="4" stroke-width="2.4" d="M14 2.8c0-0.277 0-0.415 0.062-0.528 0.051-0.093 0.146-0.179 0.243-0.22 0.118-0.050 0.243-0.037 0.494-0.012 1.828 0.183 3.547 0.992 4.858 2.303s2.12 3.030 2.303 4.858c0.025 0.251 0.038 0.376-0.012 0.494-0.041 0.097-0.127 0.192-0.22 0.243-0.112 0.062-0.251 0.062-0.528 0.062h-6.4c-0.28 0-0.42 0-0.527-0.054-0.094-0.048-0.171-0.124-0.219-0.219-0.055-0.107-0.055-0.247-0.055-0.527v-6.4z"></path>
</symbol>
<symbol id="icon-eye-on" viewBox="0 0 24 24">
<path stroke-linejoin="round" stroke-linecap="round" stroke-miterlimit="4" stroke-width="1.56" d="M1 12c0 0 4-8 11-8s11 8 11 8-4 8-11 8c-7 0-11-8-11-8z"></path>
<path stroke-linejoin="round" stroke-linecap="round" stroke-miterlimit="4" stroke-width="1.56" d="M12 15c1.657 0 3-1.343 3-3s-1.343-3-3-3c-1.657 0-3 1.343-3 3s1.343 3 3 3z"></path>
</symbol>
<symbol id="icon-check" viewBox="0 0 24 24">
<path d="M11.25 16.32l-4.050-4.561 1.35-1.519 2.7 3.039 5.399-6.079 1.351 1.521-6.75 7.599z"></path>
<path d="M0 12c0 6.627 5.373 12 12 12s12-5.373 12-12c0-6.627-5.373-12-12-12s-12 5.373-12 12zM12 21.818c-1.289 0-2.566-0.254-3.757-0.747s-2.274-1.217-3.185-2.128c-0.912-0.912-1.635-1.994-2.128-3.185s-0.747-2.468-0.747-3.757c0-1.289 0.254-2.566 0.747-3.757s1.217-2.274 2.128-3.185c0.912-0.912 1.994-1.635 3.185-2.128s2.468-0.747 3.757-0.747c2.604 0 5.101 1.034 6.942 2.876s2.876 4.339 2.876 6.943c0 2.604-1.034 5.101-2.876 6.942s-4.338 2.876-6.942 2.876z"></path>
</symbol>
<symbol id="icon-hourglass" viewBox="0 0 24 24">
<path stroke-linejoin="round" stroke-linecap="round" stroke-miterlimit="4" stroke-width="2.4" d="M12 12l-4.273-3.561c-0.635-0.529-0.952-0.794-1.18-1.118-0.202-0.287-0.352-0.608-0.444-0.947-0.103-0.383-0.103-0.796-0.103-1.622v-2.752M12 12l4.273-3.561c0.635-0.529 0.952-0.794 1.181-1.118 0.202-0.287 0.352-0.608 0.444-0.947 0.103-0.383 0.103-0.796 0.103-1.622v-2.752M12 12l-4.273 3.561c-0.635 0.529-0.952 0.794-1.18 1.118-0.202 0.287-0.352 0.608-0.444 0.947-0.103 0.383-0.103 0.796-0.103 1.623v2.752M12 12l4.273 3.561c0.635 0.529 0.952 0.794 1.181 1.118 0.202 0.287 0.352 0.608 0.444 0.947 0.103 0.383 0.103 0.796 0.103 1.623v2.752"></path>
<path stroke-linejoin="round" stroke-linecap="round" stroke-miterlimit="4" stroke-width="2.4" d="M4 2h16M4 22h16"></path>
</symbol>
<symbol id="icon-arrow" viewBox="0 0 24 24">
<path stroke-linejoin="round" stroke-linecap="round" stroke-miterlimit="4" stroke-width="2" d="M14 17l5-5-5-5"></path>
<path stroke-linejoin="round" stroke-linecap="round" stroke-miterlimit="4" stroke-width="2" d="M19 12h-14"></path>
</symbol>
<symbol id="icon-error" viewBox="0 0 24 24">
<path d="M12 21.75c-2.586 0-5.066-1.027-6.894-2.856s-2.856-4.308-2.856-6.894c0-2.586 1.027-5.066 2.856-6.894s4.308-2.856 6.894-2.856c2.586 0 5.066 1.027 6.894 2.856s2.856 4.308 2.856 6.894c0 2.586-1.027 5.066-2.856 6.894s-4.308 2.856-6.894 2.856zM12 24c3.183 0 6.235-1.264 8.485-3.515s3.515-5.303 3.515-8.485c0-3.183-1.264-6.235-3.515-8.485s-5.303-3.515-8.485-3.515c-3.183 0-6.235 1.264-8.485 3.515s-3.515 5.303-3.515 8.485c0 3.183 1.264 6.235 3.515 8.485s5.303 3.515 8.485 3.515zM13.5 16.5c0 0.398-0.158 0.779-0.439 1.061s-0.663 0.439-1.061 0.439c-0.398 0-0.779-0.158-1.061-0.439s-0.439-0.663-0.439-1.061c0-0.398 0.158-0.779 0.439-1.061s0.663-0.439 1.061-0.439c0.398 0 0.779 0.158 1.061 0.439s0.439 0.663 0.439 1.061zM13.125 7.125c0-0.298-0.119-0.585-0.33-0.795s-0.497-0.33-0.795-0.33c-0.298 0-0.585 0.119-0.795 0.33s-0.33 0.497-0.33 0.795v5.25c0 0.298 0.119 0.585 0.33 0.795s0.497 0.33 0.795 0.33c0.298 0 0.585-0.119 0.795-0.33s0.33-0.497 0.33-0.795v-5.25z"></path>
</symbol>
<symbol id="icon-eye-off" viewBox="0 0 24 24">
<path stroke-linejoin="round" stroke-linecap="round" stroke-miterlimit="4" stroke-width="1.56" d="M17.94 17.94c-1.709 1.303-3.791 2.025-5.94 2.060-7 0-11-8-11-8 1.244-2.318 2.969-4.343 5.060-5.94M9.9 4.24c0.688-0.161 1.393-0.242 2.1-0.24 7 0 11 8 11 8-0.607 1.136-1.331 2.205-2.16 3.19M14.12 14.12c-0.275 0.295-0.606 0.531-0.974 0.695s-0.765 0.252-1.168 0.259c-0.403 0.007-0.803-0.067-1.176-0.218s-0.713-0.375-0.998-0.66c-0.285-0.285-0.509-0.624-0.66-0.998s-0.225-0.774-0.218-1.176c0.007-0.403 0.095-0.8 0.259-1.168s0.4-0.699 0.695-0.974"></path>
<path stroke-linejoin="round" stroke-linecap="round" stroke-miterlimit="4" stroke-width="1.56" d="M1 1l22 22"></path>
</symbol>
<symbol id="icon-attachment" viewBox="0 0 24 24">
<path d="M21.075 14.175l-11.25-11.25c-1.875-1.95-4.95-1.95-6.9-0.075s-1.95 5.025 0 6.9l0.075 0.075 2.1 2.175 1.050-1.050-2.175-2.175c-1.275-1.275-1.275-3.45 0-4.725s3.45-1.35 4.725-0.075l11.25 11.25c1.35 1.275 1.35 3.45 0.075 4.725-1.275 1.35-3.45 1.35-4.725 0.075l-5.625-5.625c-0.75-0.75-0.675-1.95 0-2.625 0.36-0.326 0.827-0.506 1.313-0.506s0.953 0.18 1.312 0.506l3.075 3.075 1.050-1.050-3.15-3.15c-0.319-0.302-0.695-0.538-1.106-0.694s-0.848-0.229-1.288-0.215c-0.439 0.014-0.871 0.115-1.271 0.296s-0.76 0.441-1.060 0.762c-1.2 1.275-1.2 3.3 0 4.65l5.625 5.625c1.875 1.95 4.95 1.95 6.9 0.075s1.95-5.025 0-6.975c0 0.075 0 0 0 0z"></path>
</symbol>
<symbol id="icon-trash" viewBox="0 0 24 24">
<path stroke-linejoin="round" stroke-linecap="round" stroke-miterlimit="4" stroke-width="1.7143" d="M3 6h18"></path>
<path stroke-linejoin="round" stroke-linecap="round" stroke-miterlimit="4" stroke-width="1.7143" d="M19 6v14c0 0.53-0.211 1.039-0.586 1.414s-0.884 0.586-1.414 0.586h-10c-0.53 0-1.039-0.211-1.414-0.586s-0.586-0.884-0.586-1.414v-14M8 6v-2c0-0.53 0.211-1.039 0.586-1.414s0.884-0.586 1.414-0.586h4c0.53 0 1.039 0.211 1.414 0.586s0.586 0.884 0.586 1.414v2"></path>
<path stroke-linejoin="round" stroke-linecap="round" stroke-miterlimit="4" stroke-width="1.7143" d="M10 11v6"></path>
<path stroke-linejoin="round" stroke-linecap="round" stroke-miterlimit="4" stroke-width="1.7143" d="M14 11v6"></path>
</symbol>
<symbol id="icon-close" viewBox="0 0 24 24">
<path stroke-linejoin="round" stroke-linecap="round" stroke-miterlimit="4" stroke-width="2.1818" d="M18 6l-12 12"></path>
<path stroke-linejoin="round" stroke-linecap="round" stroke-miterlimit="4" stroke-width="2.1818" d="M6 6l12 12"></path>
</symbol>
<symbol id="icon-home" viewBox="0 0 32 32">
<path d="M32 18.451l-16-12.42-16 12.42v-5.064l16-12.42 16 12.42zM28 18v12h-8v-8h-8v8h-8v-12l12-9z"></path>
</symbol>
<!-- delete icon home ? -->
<symbol id="icon-search" viewBox="0 0 32 32">
<path d="M31.008 27.231l-7.58-6.447c-0.784-0.705-1.622-1.029-2.299-0.998 1.789-2.096 2.87-4.815 2.87-7.787 0-6.627-5.373-12-12-12s-12 5.373-12 12 5.373 12 12 12c2.972 0 5.691-1.081 7.787-2.87-0.031 0.677 0.293 1.515 0.998 2.299l6.447 7.58c1.104 1.226 2.907 1.33 4.007 0.23s0.997-2.903-0.23-4.007zM12 20c-4.418 0-8-3.582-8-8s3.582-8 8-8 8 3.582 8 8-3.582 8-8 8z"></path>
</symbol>
<!-- delete icon search ? -->

<symbol id="icon-arrow-up-right" viewBox="0 0 32 32">
<path d="M7.414 27.414l16.586-16.586v7.172c0 1.105 0.895 2 2 2s2-0.895 2-2v-12c0-0.809-0.487-1.538-1.235-1.848-0.248-0.103-0.508-0.151-0.765-0.151v-0.001h-12c-1.105 0-2 0.895-2 2s0.895 2 2 2h7.172l-16.586 16.586c-0.391 0.39-0.586 0.902-0.586 1.414s0.195 1.024 0.586 1.414c0.781 0.781 2.047 0.781 2.828 0z"></path>
</symbol>
<symbol id="icon-arrow-right" viewBox="0 0 32 32">
<path d="M19.414 27.414l10-10c0.781-0.781 0.781-2.047 0-2.828l-10-10c-0.781-0.781-2.047-0.781-2.828 0s-0.781 2.047 0 2.828l6.586 6.586h-19.172c-1.105 0-2 0.895-2 2s0.895 2 2 2h19.172l-6.586 6.586c-0.39 0.39-0.586 0.902-0.586 1.414s0.195 1.024 0.586 1.414c0.781 0.781 2.047 0.781 2.828 0z"></path>
</symbol>
</defs>
</svg>
